<mxfile host="app.diagrams.net" modified="2021-02-07T10:02:23.059Z" agent="5.0 (Macintosh; Intel Mac OS X 10_15_3) AppleWebKit/537.36 (KHTML, like Gecko) Chrome/88.0.4324.150 Safari/537.36" etag="WYjmzJ5JnoAzicnQOX_A" version="14.2.9" type="github">
  <diagram id="j-YGNXRrZcp73gbVPq_E" name="第 1 页">
    <mxGraphModel dx="1426" dy="771" grid="1" gridSize="10" guides="1" tooltips="1" connect="1" arrows="1" fold="1" page="1" pageScale="1" pageWidth="1920" pageHeight="1200" math="0" shadow="0">
      <root>
        <mxCell id="0" />
        <mxCell id="1" parent="0" />
        <mxCell id="oJ-guz8s-eEj2r6_3NmI-73" value="" style="rounded=0;whiteSpace=wrap;html=1;dashed=1;" parent="1" vertex="1">
          <mxGeometry x="440" y="230" width="480" height="450" as="geometry" />
        </mxCell>
        <mxCell id="oJ-guz8s-eEj2r6_3NmI-71" value="" style="rounded=1;whiteSpace=wrap;html=1;dashed=1;" parent="1" vertex="1">
          <mxGeometry x="940" y="250" width="170" height="280" as="geometry" />
        </mxCell>
        <mxCell id="oJ-guz8s-eEj2r6_3NmI-1" value="&lt;font style=&quot;font-size: 20px&quot;&gt;Producer&lt;/font&gt;" style="rounded=1;whiteSpace=wrap;html=1;" parent="1" vertex="1">
          <mxGeometry x="230" y="360" width="120" height="60" as="geometry" />
        </mxCell>
        <mxCell id="oJ-guz8s-eEj2r6_3NmI-11" value="" style="group" parent="1" vertex="1" connectable="0">
          <mxGeometry x="460" y="240" width="440" height="80" as="geometry" />
        </mxCell>
        <mxCell id="oJ-guz8s-eEj2r6_3NmI-2" value="" style="rounded=0;whiteSpace=wrap;html=1;" parent="oJ-guz8s-eEj2r6_3NmI-11" vertex="1">
          <mxGeometry y="20" width="440" height="60" as="geometry" />
        </mxCell>
        <mxCell id="oJ-guz8s-eEj2r6_3NmI-3" value="" style="endArrow=none;html=1;entryX=0.25;entryY=0;entryDx=0;entryDy=0;exitX=0.25;exitY=1;exitDx=0;exitDy=0;" parent="oJ-guz8s-eEj2r6_3NmI-11" source="oJ-guz8s-eEj2r6_3NmI-2" target="oJ-guz8s-eEj2r6_3NmI-2" edge="1">
          <mxGeometry width="50" height="50" relative="1" as="geometry">
            <mxPoint x="80" y="170" as="sourcePoint" />
            <mxPoint x="130" y="120" as="targetPoint" />
          </mxGeometry>
        </mxCell>
        <mxCell id="oJ-guz8s-eEj2r6_3NmI-4" value="" style="endArrow=none;html=1;entryX=0.5;entryY=0;entryDx=0;entryDy=0;exitX=0.5;exitY=1;exitDx=0;exitDy=0;" parent="oJ-guz8s-eEj2r6_3NmI-11" source="oJ-guz8s-eEj2r6_3NmI-2" target="oJ-guz8s-eEj2r6_3NmI-2" edge="1">
          <mxGeometry width="50" height="50" relative="1" as="geometry">
            <mxPoint x="120" y="90" as="sourcePoint" />
            <mxPoint x="119.99999999999977" y="30" as="targetPoint" />
          </mxGeometry>
        </mxCell>
        <mxCell id="oJ-guz8s-eEj2r6_3NmI-5" value="" style="endArrow=none;html=1;entryX=0.75;entryY=0;entryDx=0;entryDy=0;" parent="oJ-guz8s-eEj2r6_3NmI-11" target="oJ-guz8s-eEj2r6_3NmI-2" edge="1">
          <mxGeometry width="50" height="50" relative="1" as="geometry">
            <mxPoint x="330" y="80" as="sourcePoint" />
            <mxPoint x="230" y="30" as="targetPoint" />
          </mxGeometry>
        </mxCell>
        <mxCell id="oJ-guz8s-eEj2r6_3NmI-6" value="&lt;font style=&quot;font-size: 19px&quot;&gt;Job1&lt;/font&gt;" style="text;html=1;strokeColor=none;fillColor=none;align=center;verticalAlign=middle;whiteSpace=wrap;rounded=0;" parent="oJ-guz8s-eEj2r6_3NmI-11" vertex="1">
          <mxGeometry x="30" y="40" width="40" height="20" as="geometry" />
        </mxCell>
        <mxCell id="oJ-guz8s-eEj2r6_3NmI-7" value="&lt;font style=&quot;font-size: 19px&quot;&gt;Job2&lt;/font&gt;" style="text;html=1;strokeColor=none;fillColor=none;align=center;verticalAlign=middle;whiteSpace=wrap;rounded=0;" parent="oJ-guz8s-eEj2r6_3NmI-11" vertex="1">
          <mxGeometry x="146" y="40" width="40" height="20" as="geometry" />
        </mxCell>
        <mxCell id="oJ-guz8s-eEj2r6_3NmI-8" value="&lt;font style=&quot;font-size: 19px&quot;&gt;Job3&lt;/font&gt;" style="text;html=1;strokeColor=none;fillColor=none;align=center;verticalAlign=middle;whiteSpace=wrap;rounded=0;" parent="oJ-guz8s-eEj2r6_3NmI-11" vertex="1">
          <mxGeometry x="250" y="40" width="40" height="20" as="geometry" />
        </mxCell>
        <mxCell id="oJ-guz8s-eEj2r6_3NmI-9" value="&lt;font style=&quot;font-size: 19px&quot;&gt;......&lt;/font&gt;" style="text;html=1;strokeColor=none;fillColor=none;align=center;verticalAlign=middle;whiteSpace=wrap;rounded=0;" parent="oJ-guz8s-eEj2r6_3NmI-11" vertex="1">
          <mxGeometry x="360" y="40" width="40" height="20" as="geometry" />
        </mxCell>
        <mxCell id="oJ-guz8s-eEj2r6_3NmI-10" value="queue1" style="rounded=0;whiteSpace=wrap;html=1;fillColor=#f5f5f5;strokeColor=#666666;fontColor=#333333;" parent="oJ-guz8s-eEj2r6_3NmI-11" vertex="1">
          <mxGeometry width="50" height="20" as="geometry" />
        </mxCell>
        <mxCell id="oJ-guz8s-eEj2r6_3NmI-12" value="" style="group" parent="1" vertex="1" connectable="0">
          <mxGeometry x="460" y="340" width="440" height="80" as="geometry" />
        </mxCell>
        <mxCell id="oJ-guz8s-eEj2r6_3NmI-13" value="" style="rounded=0;whiteSpace=wrap;html=1;" parent="oJ-guz8s-eEj2r6_3NmI-12" vertex="1">
          <mxGeometry y="20" width="440" height="60" as="geometry" />
        </mxCell>
        <mxCell id="oJ-guz8s-eEj2r6_3NmI-14" value="" style="endArrow=none;html=1;entryX=0.25;entryY=0;entryDx=0;entryDy=0;exitX=0.25;exitY=1;exitDx=0;exitDy=0;" parent="oJ-guz8s-eEj2r6_3NmI-12" source="oJ-guz8s-eEj2r6_3NmI-13" target="oJ-guz8s-eEj2r6_3NmI-13" edge="1">
          <mxGeometry width="50" height="50" relative="1" as="geometry">
            <mxPoint x="80" y="170" as="sourcePoint" />
            <mxPoint x="130" y="120" as="targetPoint" />
          </mxGeometry>
        </mxCell>
        <mxCell id="oJ-guz8s-eEj2r6_3NmI-15" value="" style="endArrow=none;html=1;entryX=0.5;entryY=0;entryDx=0;entryDy=0;exitX=0.5;exitY=1;exitDx=0;exitDy=0;" parent="oJ-guz8s-eEj2r6_3NmI-12" source="oJ-guz8s-eEj2r6_3NmI-13" target="oJ-guz8s-eEj2r6_3NmI-13" edge="1">
          <mxGeometry width="50" height="50" relative="1" as="geometry">
            <mxPoint x="120" y="90" as="sourcePoint" />
            <mxPoint x="119.99999999999977" y="30" as="targetPoint" />
          </mxGeometry>
        </mxCell>
        <mxCell id="oJ-guz8s-eEj2r6_3NmI-16" value="" style="endArrow=none;html=1;entryX=0.75;entryY=0;entryDx=0;entryDy=0;" parent="oJ-guz8s-eEj2r6_3NmI-12" target="oJ-guz8s-eEj2r6_3NmI-13" edge="1">
          <mxGeometry width="50" height="50" relative="1" as="geometry">
            <mxPoint x="330" y="80" as="sourcePoint" />
            <mxPoint x="230" y="30" as="targetPoint" />
          </mxGeometry>
        </mxCell>
        <mxCell id="oJ-guz8s-eEj2r6_3NmI-17" value="&lt;font style=&quot;font-size: 19px&quot;&gt;Job1&lt;/font&gt;" style="text;html=1;strokeColor=none;fillColor=none;align=center;verticalAlign=middle;whiteSpace=wrap;rounded=0;" parent="oJ-guz8s-eEj2r6_3NmI-12" vertex="1">
          <mxGeometry x="30" y="40" width="40" height="20" as="geometry" />
        </mxCell>
        <mxCell id="oJ-guz8s-eEj2r6_3NmI-18" value="&lt;font style=&quot;font-size: 19px&quot;&gt;Job2&lt;/font&gt;" style="text;html=1;strokeColor=none;fillColor=none;align=center;verticalAlign=middle;whiteSpace=wrap;rounded=0;" parent="oJ-guz8s-eEj2r6_3NmI-12" vertex="1">
          <mxGeometry x="146" y="40" width="40" height="20" as="geometry" />
        </mxCell>
        <mxCell id="oJ-guz8s-eEj2r6_3NmI-19" value="&lt;font style=&quot;font-size: 19px&quot;&gt;Job3&lt;/font&gt;" style="text;html=1;strokeColor=none;fillColor=none;align=center;verticalAlign=middle;whiteSpace=wrap;rounded=0;" parent="oJ-guz8s-eEj2r6_3NmI-12" vertex="1">
          <mxGeometry x="250" y="40" width="40" height="20" as="geometry" />
        </mxCell>
        <mxCell id="oJ-guz8s-eEj2r6_3NmI-20" value="&lt;font style=&quot;font-size: 19px&quot;&gt;......&lt;/font&gt;" style="text;html=1;strokeColor=none;fillColor=none;align=center;verticalAlign=middle;whiteSpace=wrap;rounded=0;" parent="oJ-guz8s-eEj2r6_3NmI-12" vertex="1">
          <mxGeometry x="360" y="40" width="40" height="20" as="geometry" />
        </mxCell>
        <mxCell id="oJ-guz8s-eEj2r6_3NmI-21" value="queue2" style="rounded=0;whiteSpace=wrap;html=1;fillColor=#f5f5f5;strokeColor=#666666;fontColor=#333333;" parent="oJ-guz8s-eEj2r6_3NmI-12" vertex="1">
          <mxGeometry width="50" height="20" as="geometry" />
        </mxCell>
        <mxCell id="oJ-guz8s-eEj2r6_3NmI-22" value="" style="group" parent="1" vertex="1" connectable="0">
          <mxGeometry x="460" y="440" width="440" height="80" as="geometry" />
        </mxCell>
        <mxCell id="oJ-guz8s-eEj2r6_3NmI-23" value="" style="rounded=0;whiteSpace=wrap;html=1;" parent="oJ-guz8s-eEj2r6_3NmI-22" vertex="1">
          <mxGeometry y="20" width="440" height="60" as="geometry" />
        </mxCell>
        <mxCell id="oJ-guz8s-eEj2r6_3NmI-24" value="" style="endArrow=none;html=1;entryX=0.25;entryY=0;entryDx=0;entryDy=0;exitX=0.25;exitY=1;exitDx=0;exitDy=0;" parent="oJ-guz8s-eEj2r6_3NmI-22" source="oJ-guz8s-eEj2r6_3NmI-23" target="oJ-guz8s-eEj2r6_3NmI-23" edge="1">
          <mxGeometry width="50" height="50" relative="1" as="geometry">
            <mxPoint x="80" y="170" as="sourcePoint" />
            <mxPoint x="130" y="120" as="targetPoint" />
          </mxGeometry>
        </mxCell>
        <mxCell id="oJ-guz8s-eEj2r6_3NmI-25" value="" style="endArrow=none;html=1;entryX=0.5;entryY=0;entryDx=0;entryDy=0;exitX=0.5;exitY=1;exitDx=0;exitDy=0;" parent="oJ-guz8s-eEj2r6_3NmI-22" source="oJ-guz8s-eEj2r6_3NmI-23" target="oJ-guz8s-eEj2r6_3NmI-23" edge="1">
          <mxGeometry width="50" height="50" relative="1" as="geometry">
            <mxPoint x="120" y="90" as="sourcePoint" />
            <mxPoint x="119.99999999999977" y="30" as="targetPoint" />
          </mxGeometry>
        </mxCell>
        <mxCell id="oJ-guz8s-eEj2r6_3NmI-26" value="" style="endArrow=none;html=1;entryX=0.75;entryY=0;entryDx=0;entryDy=0;" parent="oJ-guz8s-eEj2r6_3NmI-22" target="oJ-guz8s-eEj2r6_3NmI-23" edge="1">
          <mxGeometry width="50" height="50" relative="1" as="geometry">
            <mxPoint x="330" y="80" as="sourcePoint" />
            <mxPoint x="230" y="30" as="targetPoint" />
          </mxGeometry>
        </mxCell>
        <mxCell id="oJ-guz8s-eEj2r6_3NmI-27" value="&lt;font style=&quot;font-size: 19px&quot;&gt;Job1&lt;/font&gt;" style="text;html=1;strokeColor=none;fillColor=none;align=center;verticalAlign=middle;whiteSpace=wrap;rounded=0;" parent="oJ-guz8s-eEj2r6_3NmI-22" vertex="1">
          <mxGeometry x="30" y="40" width="40" height="20" as="geometry" />
        </mxCell>
        <mxCell id="oJ-guz8s-eEj2r6_3NmI-28" value="&lt;font style=&quot;font-size: 19px&quot;&gt;Job2&lt;/font&gt;" style="text;html=1;strokeColor=none;fillColor=none;align=center;verticalAlign=middle;whiteSpace=wrap;rounded=0;" parent="oJ-guz8s-eEj2r6_3NmI-22" vertex="1">
          <mxGeometry x="146" y="40" width="40" height="20" as="geometry" />
        </mxCell>
        <mxCell id="oJ-guz8s-eEj2r6_3NmI-29" value="&lt;font style=&quot;font-size: 19px&quot;&gt;Job3&lt;/font&gt;" style="text;html=1;strokeColor=none;fillColor=none;align=center;verticalAlign=middle;whiteSpace=wrap;rounded=0;" parent="oJ-guz8s-eEj2r6_3NmI-22" vertex="1">
          <mxGeometry x="250" y="40" width="40" height="20" as="geometry" />
        </mxCell>
        <mxCell id="oJ-guz8s-eEj2r6_3NmI-30" value="&lt;font style=&quot;font-size: 19px&quot;&gt;......&lt;/font&gt;" style="text;html=1;strokeColor=none;fillColor=none;align=center;verticalAlign=middle;whiteSpace=wrap;rounded=0;" parent="oJ-guz8s-eEj2r6_3NmI-22" vertex="1">
          <mxGeometry x="360" y="40" width="40" height="20" as="geometry" />
        </mxCell>
        <mxCell id="oJ-guz8s-eEj2r6_3NmI-31" value="queue3" style="rounded=0;whiteSpace=wrap;html=1;fillColor=#f5f5f5;strokeColor=#666666;fontColor=#333333;" parent="oJ-guz8s-eEj2r6_3NmI-22" vertex="1">
          <mxGeometry width="50" height="20" as="geometry" />
        </mxCell>
        <mxCell id="oJ-guz8s-eEj2r6_3NmI-55" value="&lt;font style=&quot;font-size: 20px&quot;&gt;&lt;b&gt;......&lt;/b&gt;&lt;/font&gt;" style="text;html=1;strokeColor=none;fillColor=none;align=center;verticalAlign=middle;whiteSpace=wrap;rounded=0;" parent="1" vertex="1">
          <mxGeometry x="460" y="540" width="40" height="20" as="geometry" />
        </mxCell>
        <mxCell id="oJ-guz8s-eEj2r6_3NmI-56" value="" style="endArrow=classic;html=1;exitX=1;exitY=0.5;exitDx=0;exitDy=0;entryX=0;entryY=0.5;entryDx=0;entryDy=0;" parent="1" source="oJ-guz8s-eEj2r6_3NmI-1" target="oJ-guz8s-eEj2r6_3NmI-2" edge="1">
          <mxGeometry width="50" height="50" relative="1" as="geometry">
            <mxPoint x="380" y="520" as="sourcePoint" />
            <mxPoint x="430" y="470" as="targetPoint" />
          </mxGeometry>
        </mxCell>
        <mxCell id="oJ-guz8s-eEj2r6_3NmI-57" value="" style="endArrow=classic;html=1;exitX=1;exitY=0.5;exitDx=0;exitDy=0;entryX=0;entryY=0.5;entryDx=0;entryDy=0;" parent="1" source="oJ-guz8s-eEj2r6_3NmI-1" target="oJ-guz8s-eEj2r6_3NmI-13" edge="1">
          <mxGeometry width="50" height="50" relative="1" as="geometry">
            <mxPoint x="390" y="520" as="sourcePoint" />
            <mxPoint x="440" y="470" as="targetPoint" />
          </mxGeometry>
        </mxCell>
        <mxCell id="oJ-guz8s-eEj2r6_3NmI-58" value="" style="endArrow=classic;html=1;entryX=0;entryY=0.5;entryDx=0;entryDy=0;exitX=1;exitY=0.5;exitDx=0;exitDy=0;" parent="1" source="oJ-guz8s-eEj2r6_3NmI-1" target="oJ-guz8s-eEj2r6_3NmI-23" edge="1">
          <mxGeometry width="50" height="50" relative="1" as="geometry">
            <mxPoint x="260" y="390" as="sourcePoint" />
            <mxPoint x="420" y="480" as="targetPoint" />
          </mxGeometry>
        </mxCell>
        <mxCell id="oJ-guz8s-eEj2r6_3NmI-59" value="&lt;font style=&quot;font-size: 15px&quot;&gt;SingleThread&lt;/font&gt;" style="shape=process;whiteSpace=wrap;html=1;backgroundOutline=1;" parent="1" vertex="1">
          <mxGeometry x="960" y="270" width="130" height="40" as="geometry" />
        </mxCell>
        <mxCell id="oJ-guz8s-eEj2r6_3NmI-60" value="" style="endArrow=classic;html=1;exitX=1;exitY=0.5;exitDx=0;exitDy=0;entryX=0;entryY=0.5;entryDx=0;entryDy=0;" parent="1" source="oJ-guz8s-eEj2r6_3NmI-2" target="oJ-guz8s-eEj2r6_3NmI-59" edge="1">
          <mxGeometry width="50" height="50" relative="1" as="geometry">
            <mxPoint x="960" y="420" as="sourcePoint" />
            <mxPoint x="1010" y="370" as="targetPoint" />
          </mxGeometry>
        </mxCell>
        <mxCell id="oJ-guz8s-eEj2r6_3NmI-61" value="&lt;font style=&quot;font-size: 15px&quot;&gt;SingleThread&lt;/font&gt;" style="shape=process;whiteSpace=wrap;html=1;backgroundOutline=1;" parent="1" vertex="1">
          <mxGeometry x="960" y="370" width="130" height="40" as="geometry" />
        </mxCell>
        <mxCell id="oJ-guz8s-eEj2r6_3NmI-62" value="&lt;font style=&quot;font-size: 15px&quot;&gt;SingleThread&lt;/font&gt;" style="shape=process;whiteSpace=wrap;html=1;backgroundOutline=1;" parent="1" vertex="1">
          <mxGeometry x="960" y="470" width="130" height="40" as="geometry" />
        </mxCell>
        <mxCell id="oJ-guz8s-eEj2r6_3NmI-63" value="" style="endArrow=classic;html=1;exitX=1;exitY=0.5;exitDx=0;exitDy=0;entryX=0;entryY=0.5;entryDx=0;entryDy=0;" parent="1" source="oJ-guz8s-eEj2r6_3NmI-13" target="oJ-guz8s-eEj2r6_3NmI-61" edge="1">
          <mxGeometry width="50" height="50" relative="1" as="geometry">
            <mxPoint x="930" y="480" as="sourcePoint" />
            <mxPoint x="980" y="430" as="targetPoint" />
          </mxGeometry>
        </mxCell>
        <mxCell id="oJ-guz8s-eEj2r6_3NmI-64" value="" style="endArrow=classic;html=1;exitX=1;exitY=0.5;exitDx=0;exitDy=0;" parent="1" source="oJ-guz8s-eEj2r6_3NmI-23" target="oJ-guz8s-eEj2r6_3NmI-62" edge="1">
          <mxGeometry width="50" height="50" relative="1" as="geometry">
            <mxPoint x="960" y="580" as="sourcePoint" />
            <mxPoint x="1010" y="530" as="targetPoint" />
          </mxGeometry>
        </mxCell>
        <mxCell id="oJ-guz8s-eEj2r6_3NmI-65" value="&lt;font style=&quot;font-size: 20px&quot;&gt;Yarn&lt;/font&gt;" style="rounded=1;whiteSpace=wrap;html=1;fillColor=#dae8fc;strokeColor=#6c8ebf;" parent="1" vertex="1">
          <mxGeometry x="1110" y="140" width="110" height="40" as="geometry" />
        </mxCell>
        <mxCell id="oJ-guz8s-eEj2r6_3NmI-66" value="" style="edgeStyle=segmentEdgeStyle;endArrow=classic;html=1;exitX=1;exitY=0.5;exitDx=0;exitDy=0;entryX=0.5;entryY=1;entryDx=0;entryDy=0;" parent="1" source="oJ-guz8s-eEj2r6_3NmI-62" target="oJ-guz8s-eEj2r6_3NmI-65" edge="1">
          <mxGeometry width="50" height="50" relative="1" as="geometry">
            <mxPoint x="1130" y="500" as="sourcePoint" />
            <mxPoint x="1180" y="450" as="targetPoint" />
          </mxGeometry>
        </mxCell>
        <mxCell id="oJ-guz8s-eEj2r6_3NmI-67" value="" style="edgeStyle=segmentEdgeStyle;endArrow=classic;html=1;entryX=0.5;entryY=1;entryDx=0;entryDy=0;" parent="1" source="oJ-guz8s-eEj2r6_3NmI-61" target="oJ-guz8s-eEj2r6_3NmI-65" edge="1">
          <mxGeometry width="50" height="50" relative="1" as="geometry">
            <mxPoint x="1200" y="390" as="sourcePoint" />
            <mxPoint x="1250" y="340" as="targetPoint" />
          </mxGeometry>
        </mxCell>
        <mxCell id="oJ-guz8s-eEj2r6_3NmI-68" value="" style="edgeStyle=segmentEdgeStyle;endArrow=classic;html=1;exitX=1;exitY=0.5;exitDx=0;exitDy=0;entryX=0.5;entryY=1;entryDx=0;entryDy=0;" parent="1" source="oJ-guz8s-eEj2r6_3NmI-59" target="oJ-guz8s-eEj2r6_3NmI-65" edge="1">
          <mxGeometry width="50" height="50" relative="1" as="geometry">
            <mxPoint x="1220" y="280" as="sourcePoint" />
            <mxPoint x="1270" y="230" as="targetPoint" />
          </mxGeometry>
        </mxCell>
        <mxCell id="oJ-guz8s-eEj2r6_3NmI-69" value="Check Resource" style="text;html=1;strokeColor=#d6b656;fillColor=#fff2cc;align=center;verticalAlign=middle;whiteSpace=wrap;rounded=0;" parent="1" vertex="1">
          <mxGeometry x="1040" y="210" width="110" height="20" as="geometry" />
        </mxCell>
        <mxCell id="oJ-guz8s-eEj2r6_3NmI-72" value="&lt;font style=&quot;font-size: 20px&quot;&gt;Consumer&lt;/font&gt;" style="text;html=1;strokeColor=none;fillColor=none;align=center;verticalAlign=middle;whiteSpace=wrap;rounded=0;dashed=1;" parent="1" vertex="1">
          <mxGeometry x="975" y="540" width="100" height="30" as="geometry" />
        </mxCell>
        <mxCell id="oJ-guz8s-eEj2r6_3NmI-75" value="Saber Restart" style="rounded=1;whiteSpace=wrap;html=1;" parent="1" vertex="1">
          <mxGeometry x="1220" y="370" width="90" height="40" as="geometry" />
        </mxCell>
        <mxCell id="oJ-guz8s-eEj2r6_3NmI-78" value="" style="endArrow=classic;html=1;exitX=1;exitY=0.5;exitDx=0;exitDy=0;entryX=0;entryY=0.5;entryDx=0;entryDy=0;" parent="1" source="oJ-guz8s-eEj2r6_3NmI-61" target="oJ-guz8s-eEj2r6_3NmI-75" edge="1">
          <mxGeometry width="50" height="50" relative="1" as="geometry">
            <mxPoint x="1270" y="470" as="sourcePoint" />
            <mxPoint x="1320" y="420" as="targetPoint" />
          </mxGeometry>
        </mxCell>
        <mxCell id="oJ-guz8s-eEj2r6_3NmI-79" value="" style="group" parent="1" vertex="1" connectable="0">
          <mxGeometry x="460" y="580" width="440" height="80" as="geometry" />
        </mxCell>
        <mxCell id="oJ-guz8s-eEj2r6_3NmI-80" value="" style="rounded=0;whiteSpace=wrap;html=1;" parent="oJ-guz8s-eEj2r6_3NmI-79" vertex="1">
          <mxGeometry y="20" width="440" height="60" as="geometry" />
        </mxCell>
        <mxCell id="oJ-guz8s-eEj2r6_3NmI-81" value="" style="endArrow=none;html=1;entryX=0.25;entryY=0;entryDx=0;entryDy=0;exitX=0.25;exitY=1;exitDx=0;exitDy=0;" parent="oJ-guz8s-eEj2r6_3NmI-79" source="oJ-guz8s-eEj2r6_3NmI-80" target="oJ-guz8s-eEj2r6_3NmI-80" edge="1">
          <mxGeometry width="50" height="50" relative="1" as="geometry">
            <mxPoint x="80" y="170" as="sourcePoint" />
            <mxPoint x="130" y="120" as="targetPoint" />
          </mxGeometry>
        </mxCell>
        <mxCell id="oJ-guz8s-eEj2r6_3NmI-82" value="" style="endArrow=none;html=1;entryX=0.5;entryY=0;entryDx=0;entryDy=0;exitX=0.5;exitY=1;exitDx=0;exitDy=0;" parent="oJ-guz8s-eEj2r6_3NmI-79" source="oJ-guz8s-eEj2r6_3NmI-80" target="oJ-guz8s-eEj2r6_3NmI-80" edge="1">
          <mxGeometry width="50" height="50" relative="1" as="geometry">
            <mxPoint x="120" y="90" as="sourcePoint" />
            <mxPoint x="119.99999999999977" y="30" as="targetPoint" />
          </mxGeometry>
        </mxCell>
        <mxCell id="oJ-guz8s-eEj2r6_3NmI-83" value="" style="endArrow=none;html=1;entryX=0.75;entryY=0;entryDx=0;entryDy=0;" parent="oJ-guz8s-eEj2r6_3NmI-79" target="oJ-guz8s-eEj2r6_3NmI-80" edge="1">
          <mxGeometry width="50" height="50" relative="1" as="geometry">
            <mxPoint x="330" y="80" as="sourcePoint" />
            <mxPoint x="230" y="30" as="targetPoint" />
          </mxGeometry>
        </mxCell>
        <mxCell id="oJ-guz8s-eEj2r6_3NmI-84" value="&lt;font style=&quot;font-size: 19px&quot;&gt;Job1&lt;/font&gt;" style="text;html=1;strokeColor=none;fillColor=none;align=center;verticalAlign=middle;whiteSpace=wrap;rounded=0;" parent="oJ-guz8s-eEj2r6_3NmI-79" vertex="1">
          <mxGeometry x="30" y="40" width="40" height="20" as="geometry" />
        </mxCell>
        <mxCell id="oJ-guz8s-eEj2r6_3NmI-85" value="&lt;font style=&quot;font-size: 19px&quot;&gt;Job2&lt;/font&gt;" style="text;html=1;strokeColor=none;fillColor=none;align=center;verticalAlign=middle;whiteSpace=wrap;rounded=0;" parent="oJ-guz8s-eEj2r6_3NmI-79" vertex="1">
          <mxGeometry x="146" y="40" width="40" height="20" as="geometry" />
        </mxCell>
        <mxCell id="oJ-guz8s-eEj2r6_3NmI-86" value="&lt;font style=&quot;font-size: 19px&quot;&gt;Job3&lt;/font&gt;" style="text;html=1;strokeColor=none;fillColor=none;align=center;verticalAlign=middle;whiteSpace=wrap;rounded=0;" parent="oJ-guz8s-eEj2r6_3NmI-79" vertex="1">
          <mxGeometry x="250" y="40" width="40" height="20" as="geometry" />
        </mxCell>
        <mxCell id="oJ-guz8s-eEj2r6_3NmI-87" value="&lt;font style=&quot;font-size: 19px&quot;&gt;......&lt;/font&gt;" style="text;html=1;strokeColor=none;fillColor=none;align=center;verticalAlign=middle;whiteSpace=wrap;rounded=0;" parent="oJ-guz8s-eEj2r6_3NmI-79" vertex="1">
          <mxGeometry x="360" y="40" width="40" height="20" as="geometry" />
        </mxCell>
        <mxCell id="oJ-guz8s-eEj2r6_3NmI-88" value="failed" style="rounded=0;whiteSpace=wrap;html=1;fillColor=#f8cecc;strokeColor=#b85450;" parent="oJ-guz8s-eEj2r6_3NmI-79" vertex="1">
          <mxGeometry width="50" height="20" as="geometry" />
        </mxCell>
        <mxCell id="oJ-guz8s-eEj2r6_3NmI-91" value="" style="edgeStyle=segmentEdgeStyle;endArrow=classic;html=1;exitX=0.5;exitY=1;exitDx=0;exitDy=0;" parent="1" source="oJ-guz8s-eEj2r6_3NmI-75" target="oJ-guz8s-eEj2r6_3NmI-80" edge="1">
          <mxGeometry width="50" height="50" relative="1" as="geometry">
            <mxPoint x="1250" y="490" as="sourcePoint" />
            <mxPoint x="1240" y="510" as="targetPoint" />
            <Array as="points">
              <mxPoint x="1270" y="410" />
              <mxPoint x="1270" y="630" />
            </Array>
          </mxGeometry>
        </mxCell>
        <mxCell id="oJ-guz8s-eEj2r6_3NmI-92" value="Restart Failed" style="text;html=1;strokeColor=#b85450;fillColor=#f8cecc;align=center;verticalAlign=middle;whiteSpace=wrap;rounded=0;" parent="1" vertex="1">
          <mxGeometry x="1060" y="600" width="90" height="20" as="geometry" />
        </mxCell>
        <mxCell id="oJ-guz8s-eEj2r6_3NmI-93" value="&lt;font style=&quot;font-size: 20px&quot;&gt;Guard&lt;/font&gt;" style="rounded=1;whiteSpace=wrap;html=1;" parent="1" vertex="1">
          <mxGeometry x="245" y="610" width="90" height="40" as="geometry" />
        </mxCell>
        <mxCell id="oJ-guz8s-eEj2r6_3NmI-94" value="" style="endArrow=classic;html=1;exitX=1;exitY=0.5;exitDx=0;exitDy=0;" parent="1" source="oJ-guz8s-eEj2r6_3NmI-93" target="oJ-guz8s-eEj2r6_3NmI-80" edge="1">
          <mxGeometry width="50" height="50" relative="1" as="geometry">
            <mxPoint x="360" y="730" as="sourcePoint" />
            <mxPoint x="410" y="680" as="targetPoint" />
          </mxGeometry>
        </mxCell>
        <mxCell id="oJ-guz8s-eEj2r6_3NmI-95" value="Check" style="text;html=1;strokeColor=none;fillColor=none;align=center;verticalAlign=middle;whiteSpace=wrap;rounded=0;" parent="1" vertex="1">
          <mxGeometry x="370" y="610" width="40" height="20" as="geometry" />
        </mxCell>
        <mxCell id="oJ-guz8s-eEj2r6_3NmI-96" value="" style="endArrow=classic;html=1;exitX=0.5;exitY=0;exitDx=0;exitDy=0;entryX=0.5;entryY=1;entryDx=0;entryDy=0;" parent="1" source="oJ-guz8s-eEj2r6_3NmI-93" target="oJ-guz8s-eEj2r6_3NmI-1" edge="1">
          <mxGeometry width="50" height="50" relative="1" as="geometry">
            <mxPoint x="310" y="540" as="sourcePoint" />
            <mxPoint x="360" y="490" as="targetPoint" />
          </mxGeometry>
        </mxCell>
        <mxCell id="oJ-guz8s-eEj2r6_3NmI-97" value="Stop Auto Restart" style="text;html=1;strokeColor=#b85450;fillColor=#f8cecc;align=center;verticalAlign=middle;whiteSpace=wrap;rounded=0;" parent="1" vertex="1">
          <mxGeometry x="170" y="500" width="110" height="20" as="geometry" />
        </mxCell>
        <mxCell id="oJ-guz8s-eEj2r6_3NmI-98" value="&lt;font style=&quot;font-size: 20px&quot;&gt;Cache&lt;/font&gt;" style="rounded=0;whiteSpace=wrap;html=1;fillColor=#d5e8d4;strokeColor=#82b366;" parent="1" vertex="1">
          <mxGeometry x="640" y="190" width="70" height="30" as="geometry" />
        </mxCell>
        <mxCell id="oJ-guz8s-eEj2r6_3NmI-99" value="&lt;font style=&quot;font-size: 15px&quot;&gt;1&lt;/font&gt;" style="text;html=1;fillColor=#f5f5f5;align=center;verticalAlign=middle;whiteSpace=wrap;rounded=0;strokeColor=#666666;fontColor=#333333;" parent="1" vertex="1">
          <mxGeometry x="276.66" y="330" width="26.67" height="20" as="geometry" />
        </mxCell>
        <mxCell id="oJ-guz8s-eEj2r6_3NmI-100" value="&lt;font style=&quot;font-size: 15px&quot;&gt;2&lt;/font&gt;" style="text;html=1;fillColor=#f5f5f5;align=center;verticalAlign=middle;whiteSpace=wrap;rounded=0;strokeColor=#666666;fontColor=#333333;" parent="1" vertex="1">
          <mxGeometry x="990" y="220" width="26.67" height="20" as="geometry" />
        </mxCell>
        <mxCell id="oJ-guz8s-eEj2r6_3NmI-101" value="&lt;font style=&quot;font-size: 15px&quot;&gt;3&lt;/font&gt;" style="text;html=1;fillColor=#f5f5f5;align=center;verticalAlign=middle;whiteSpace=wrap;rounded=0;strokeColor=#666666;fontColor=#333333;" parent="1" vertex="1">
          <mxGeometry x="1180" y="220" width="26.67" height="20" as="geometry" />
        </mxCell>
        <mxCell id="oJ-guz8s-eEj2r6_3NmI-102" value="&lt;font style=&quot;font-size: 15px&quot;&gt;4&lt;/font&gt;" style="text;html=1;fillColor=#f5f5f5;align=center;verticalAlign=middle;whiteSpace=wrap;rounded=0;strokeColor=#666666;fontColor=#333333;" parent="1" vertex="1">
          <mxGeometry x="1180" y="350" width="26.67" height="20" as="geometry" />
        </mxCell>
        <mxCell id="oJ-guz8s-eEj2r6_3NmI-103" value="&lt;font style=&quot;font-size: 15px&quot;&gt;5&lt;/font&gt;" style="text;html=1;fillColor=#f5f5f5;align=center;verticalAlign=middle;whiteSpace=wrap;rounded=0;strokeColor=#666666;fontColor=#333333;" parent="1" vertex="1">
          <mxGeometry x="1280" y="500" width="26.67" height="20" as="geometry" />
        </mxCell>
        <mxCell id="oJ-guz8s-eEj2r6_3NmI-104" value="&lt;font style=&quot;font-size: 15px&quot;&gt;6&lt;/font&gt;" style="text;html=1;fillColor=#f5f5f5;align=center;verticalAlign=middle;whiteSpace=wrap;rounded=0;strokeColor=#666666;fontColor=#333333;" parent="1" vertex="1">
          <mxGeometry x="376.66" y="640" width="26.67" height="20" as="geometry" />
        </mxCell>
        <mxCell id="oJ-guz8s-eEj2r6_3NmI-105" value="&lt;font style=&quot;font-size: 15px&quot;&gt;7&lt;/font&gt;" style="text;html=1;fillColor=#f5f5f5;align=center;verticalAlign=middle;whiteSpace=wrap;rounded=0;strokeColor=#666666;fontColor=#333333;" parent="1" vertex="1">
          <mxGeometry x="303.33000000000004" y="500" width="26.67" height="20" as="geometry" />
        </mxCell>
      </root>
    </mxGraphModel>
  </diagram>
</mxfile>
